<?xml version="1.0" standalone="no"?>
<!DOCTYPE svg PUBLIC "-//W3C//DTD SVG 20010904//EN"
 "http://www.w3.org/TR/2001/REC-SVG-20010904/DTD/svg10.dtd">
<svg version="1.0" xmlns="http://www.w3.org/2000/svg"
 width="31.000000pt" height="36.000000pt" viewBox="0 0 31.000000 36.000000"
 preserveAspectRatio="xMidYMid meet">
<metadata>
Created by potrace 1.16, written by Peter Selinger 2001-2019
</metadata>
<g transform="translate(0.000000,36.000000) scale(0.100000,-0.100000)"
fill="#000000" stroke="none">
<path d="M0 180 l0 -180 155 0 155 0 0 180 0 180 -155 0 -155 0 0 -180z m264
-36 c3 -9 6 -42 6 -75 l0 -60 -67 7 c-38 4 -72 10 -77 15 -6 6 -5 9 3 9 9 0
12 9 8 27 -7 38 28 85 59 77 12 -3 25 -1 28 5 10 16 33 13 40 -5z"/>
</g>
</svg>
